<?xml version="1.0" standalone="no"?><!DOCTYPE svg PUBLIC "-//W3C//DTD SVG 1.1//EN" "http://www.w3.org/Graphics/SVG/1.1/DTD/svg11.dtd"><svg class="icon" width="200px" height="200.00px" viewBox="0 0 1024 1024" version="1.1" xmlns="http://www.w3.org/2000/svg"><path d="M65.329914 958.668039l334.99975 0L400.329664 623.666242 65.329914 623.666242 65.329914 958.668039zM171.414021 724.866109l127.718847 0 0 127.720893-127.718847 0L171.414021 724.866109zM344.496032 511.99693l0-55.82954-55.831586 0 0 55.82954L344.496032 511.99693zM121.163547 456.167391 65.329914 456.167391l0 55.82954 55.833633 0L121.163547 456.167391zM344.501148 567.832609l55.82954 0 0-55.831586-55.82954 0L344.501148 567.832609zM232.830813 511.99693l0-55.82954-55.831586 0 0 55.82954L232.830813 511.99693zM121.163547 567.832609l55.833633 0 0-55.831586L121.163547 512.001023 121.163547 567.832609zM400.329664 511.99693l55.833633 0 0-55.82954-55.833633 0L400.329664 511.99693zM456.164321 679.503968l55.833633 0 0-55.837726-55.833633 0L456.164321 679.503968zM456.164321 567.832609l55.833633 0 0-55.831586-55.833633 0L456.164321 567.832609zM456.164321 791.167141l55.833633 0 0-55.833633-55.833633 0L456.164321 791.167141zM456.164321 902.834406l55.833633 0 0-55.833633-55.833633 0L456.164321 902.834406zM791.168164 511.99693l0-55.82954-55.833633 0 0 55.82954L791.168164 511.99693zM735.334531 567.832609l0-55.831586-55.833633 0 0 55.831586L735.334531 567.832609zM902.83543 511.99693l0-55.82954-55.833633 0 0 55.82954L902.83543 511.99693zM958.667016 65.330938 623.665219 65.330938l0 335.001797 335.001797 0L958.667016 65.330938zM852.584955 299.135938 724.865085 299.135938 724.865085 171.415045l127.720893 0L852.585979 299.135938zM567.831586 121.160477l-55.831586 0 0 55.833633 55.831586 0L567.831586 121.160477zM958.669062 512.001023l-55.833633 0 0 55.831586 55.833633 0L958.669062 512.001023zM400.329664 65.330938 65.329914 65.330938l0 335.001797 334.99975 0L400.329664 65.330938zM299.132868 299.135938l-127.718847 0L171.414021 171.415045l127.718847 0L299.132868 299.135938zM567.831586 344.500125l-55.831586 0 0 55.833633 55.831586 0L567.831586 344.500125zM567.831586 232.832859l-55.831586 0 0 55.833633 55.831586 0L567.831586 232.832859zM791.166117 567.832609l55.833633 0 0-55.831586-55.833633 0L791.166117 567.832609zM679.500898 847.000773l0 55.833633 55.833633 0 0-55.833633L679.500898 847.000773zM679.500898 623.666242l0 55.837726 55.833633 0 0-55.837726L679.500898 623.666242zM958.669062 791.167141l0-55.833633-55.833633 0 0 55.833633L958.669062 791.167141zM623.665219 511.99693l55.833633 0 0-55.82954-55.833633 0L623.665219 511.99693zM623.667266 512.001023l-55.835679 0 0 55.831586 55.833633 0 0 55.833633-55.833633 0 0 55.837726 55.833633 0 0 55.82954-55.833633 0 0 55.833633 55.833633 0 0 55.833633 55.833633 0 0-55.833633-55.831586 0 0-55.833633 55.831586 0 0-55.82954-55.831586 0 0-55.837726 55.831586 0 0-55.833633-55.831586 0L623.667266 512.001023zM847.001797 958.668039l55.833633 0 0-55.833633-55.833633 0L847.001797 958.668039zM902.83543 902.834406l55.833633 0 0-55.833633-55.833633 0L902.83543 902.834406zM456.164321 456.167391l55.833633 0 0-55.833633-55.833633 0L456.164321 456.167391zM791.166117 679.503968l-55.831586 0 0 55.82954 55.831586 0 0 55.833633-55.831586 0 0 55.833633 55.831586 0 0 55.833633-55.831586 0 0 55.833633 55.833633 0 0-55.833633 55.831586 0 0-55.833633-55.831586 0 0-55.833633 55.831586 0 0-55.833633-55.831586 0 0-55.82954 55.831586 0 0-55.837726-55.833633 0L791.166117 679.503968zM958.669062 679.503968l0-55.837726-55.833633 0 0 55.837726L958.669062 679.503968zM847.001797 735.333508l55.833633 0 0-55.82954-55.833633 0L847.001797 735.333508zM512 958.668039l55.831586 0 0-55.833633-55.831586 0L512 958.668039zM623.665219 958.668039l55.833633 0 0-55.833633-55.833633 0L623.665219 958.668039zM456.164321 121.160477l55.833633 0L511.997953 65.330938l-55.833633 0L456.164321 121.160477zM456.164321 344.500125l55.833633 0 0-55.833633-55.833633 0L456.164321 344.500125zM456.164321 232.832859l55.833633 0 0-55.833633-55.833633 0L456.164321 232.832859zM512 847.000773l55.831586 0 0-55.833633-55.831586 0L512 847.000773zM512 679.503968l0 55.82954 55.831586 0 0-55.82954L512 679.503968zM512 567.832609l0 55.833633 55.831586 0 0-55.833633L512 567.832609zM847.001797 567.832609l0 55.833633 55.833633 0 0-55.833633L847.001797 567.832609z" fill="#fb0177" /></svg>