<?xml version="1.0" standalone="no"?><!DOCTYPE svg PUBLIC "-//W3C//DTD SVG 1.1//EN" "http://www.w3.org/Graphics/SVG/1.1/DTD/svg11.dtd"><svg class="icon" width="200px" height="155.62px" viewBox="0 0 1316 1024" version="1.1" xmlns="http://www.w3.org/2000/svg"><path d="M1013.723429 477.696L1024 658.249143c4.571429 80.566857-163.986286 146.285714-365.714286 146.285714s-370.285714-65.718857-365.714285-146.285714l10.276571-180.553143 328.009143 103.424c9.142857 2.852571 18.285714 3.986286 27.428571 3.986286s18.285714-1.133714 27.428572-3.986286zM1316.571429 292.571429a19.090286 19.090286 0 0 1-12.580572 17.700571l-640 201.142857C661.686857 512 660.004571 512 658.285714 512s-3.437714 0-5.705143-0.585143L280.027429 393.691429c-32.585143 25.709714-55.442286 88.576-60.013715 165.705142 21.723429 12.580571 35.986286 35.437714 35.986286 62.281143a72.777143 72.777143 0 0 1-33.133714 61.147429L256 930.267429a18.761143 18.761143 0 0 1-18.285714 20.589714h-109.714286a18.724571 18.724571 0 0 1-18.285714-20.589714l33.133714-247.442286A72.777143 72.777143 0 0 1 109.714286 621.677714c0-27.428571 15.433143-50.870857 37.156571-63.414857 3.437714-66.852571 20.553143-138.861714 55.990857-188.562286L12.580571 310.272C5.156571 307.419429 0 300.544 0 292.571429s5.156571-14.848 12.580571-17.700572l640-201.142857C654.884571 73.142857 656.566857 73.142857 658.285714 73.142857s3.437714 0 5.705143 0.585143l640 201.142857A19.126857 19.126857 0 0 1 1316.571429 292.571429z" fill="#fb0177" /></svg>