<?xml version="1.0" standalone="no"?><!DOCTYPE svg PUBLIC "-//W3C//DTD SVG 1.1//EN" "http://www.w3.org/Graphics/SVG/1.1/DTD/svg11.dtd"><svg class="icon" width="200px" height="200.00px" viewBox="0 0 1024 1024" version="1.1" xmlns="http://www.w3.org/2000/svg"><path d="M320 528h368v-80H320v80z m144 224h224v-80H464v80zM746.656 61.712L663.84 30.784l-80.032 29.888-80.032-29.888-80 29.888-80-29.888-82.672 30.928L144 34.944V948.16l119.872 44.832 79.936-29.888 79.968 29.888 80-29.888 80 29.888 80-29.888 80.096 29.888L864 948.144V34.944l-117.344 26.768zM784 892.624l-40.128 14.944-80.048-29.888-80.032 29.888-80.032-29.888-80 29.888-80-29.888-79.888 29.888L224 892.624V135.264l42.656 9.76 77.152-28.832 79.968 29.888 80-29.888 80 29.888 80-29.888 77.328 28.848L784 135.28v757.344zM320 384h368v-80H320v80z" fill="#fb0177" /></svg>